<svg width="21" height="20" viewBox="0 0 21 20" fill="none" xmlns="http://www.w3.org/2000/svg">
<path d="M20.0369 18.5775L14.3494 12.89C15.4511 11.5292 16.1144 9.8 16.1144 7.91668C16.1144 3.55168 12.5628 0 8.1978 0C3.83285 0 0.28125 3.55164 0.28125 7.91664C0.28125 12.2816 3.83289 15.8333 8.19784 15.8333C10.0811 15.8333 11.8103 15.17 13.1711 14.0683L18.8585 19.7558C19.021 19.9183 19.2344 20 19.4477 20C19.6611 20 19.8744 19.9183 20.0369 19.7558C20.3627 19.43 20.3627 18.9033 20.0369 18.5775ZM8.19784 14.1666C4.7512 14.1666 1.94791 11.3633 1.94791 7.91664C1.94791 4.46996 4.7512 1.66664 8.19784 1.66664C11.6445 1.66664 14.4478 4.46996 14.4478 7.91664C14.4478 11.3633 11.6444 14.1666 8.19784 14.1666Z" fill="#3C3C3C" fill-opacity="0.6"/>
</svg>
