<svg width="17" height="16" viewBox="0 0 17 16" fill="none" xmlns="http://www.w3.org/2000/svg">
<path d="M8.90625 16C7.01203 16 5.17481 15.3261 3.73303 14.1025C3.3945 13.8153 3.07694 13.497 2.78925 13.1564C1.57491 11.717 0.90625 9.88584 0.90625 8C0.90625 5.86309 1.73838 3.85413 3.24938 2.34313C4.76038 0.832125 6.76934 0 8.90625 0C11.0432 0 13.0521 0.832125 14.5631 2.34313C16.0741 3.85413 16.9062 5.86309 16.9062 8C16.9062 9.88587 16.2376 11.717 15.0234 13.1562C14.7356 13.497 14.418 13.8153 14.0794 14.1026C12.6377 15.3261 10.8005 16 8.90625 16ZM8.90625 1C5.04644 1 1.90625 4.14019 1.90625 8C1.90625 9.65016 2.49122 11.2523 3.55341 12.5113C3.80528 12.8096 4.08344 13.0884 4.38 13.34C5.64138 14.4105 7.24878 15 8.90625 15C10.5637 15 12.1711 14.4105 13.4324 13.34C13.7291 13.0884 14.0072 12.8095 14.2592 12.5111C15.3213 11.2523 15.9062 9.65019 15.9062 8C15.9062 4.14019 12.7661 1 8.90625 1Z" fill="#3C3C3C" fill-opacity="0.4"/>
<path d="M8.90625 8C7.25203 8 5.90625 6.65422 5.90625 5C5.90625 3.34578 7.25203 2 8.90625 2C10.5605 2 11.9062 3.34578 11.9062 5C11.9062 6.65422 10.5605 8 8.90625 8ZM8.90625 3C7.80344 3 6.90625 3.89719 6.90625 5C6.90625 6.10281 7.80344 7 8.90625 7C10.0091 7 10.9062 6.10281 10.9062 5C10.9062 3.89719 10.0091 3 8.90625 3Z" fill="#3C3C3C" fill-opacity="0.4"/>
<path d="M13.7563 14.2214C13.716 14.2214 13.6751 14.2165 13.6342 14.2062C13.3664 14.139 13.2037 13.8674 13.271 13.5995C13.3607 13.2419 13.4062 12.872 13.4062 12.5C13.4062 10.0536 11.4173 8.03544 8.97209 8.00031L8.90625 8L8.84041 8.00031C6.39519 8.03544 4.40625 10.0536 4.40625 12.5C4.40625 12.872 4.45178 13.2419 4.54153 13.5995C4.60875 13.8674 4.44613 14.139 4.17831 14.2062C3.9105 14.2734 3.63884 14.1108 3.57162 13.843C3.46187 13.4058 3.40625 12.954 3.40625 12.5C3.40625 11.0444 3.96928 9.67241 4.99162 8.63656C6.01297 7.60175 7.37553 7.02069 8.82831 7.00037C8.83066 7.00034 8.83297 7.00034 8.83531 7.00034L8.90625 7L8.97719 7.00031C8.97953 7.00031 8.98184 7.00031 8.98419 7.00034C10.437 7.02063 11.7995 7.60172 12.8209 8.63653C13.8432 9.67241 14.4062 11.0444 14.4062 12.5C14.4062 12.954 14.3506 13.4058 14.2409 13.843C14.1839 14.0699 13.9802 14.2213 13.7563 14.2214Z" fill="#3C3C3C" fill-opacity="0.4"/>
</svg>
