<svg width="41" height="40" viewBox="0 0 41 40" fill="none" xmlns="http://www.w3.org/2000/svg">
<g clip-path="url(#clip0_162_710)">
<path d="M35.9062 0H5.90625C3.14875 0 0.90625 2.2425 0.90625 5V35C0.90625 37.7575 3.14875 40 5.90625 40H35.9062C38.6637 40 40.9062 37.7575 40.9062 35V5C40.9062 2.2425 38.6637 0 35.9062 0Z" fill="#1976D2"/>
<path d="M34.6562 20H28.4062V15C28.4062 13.62 29.5262 13.75 30.9062 13.75H33.4062V7.5H28.4062C24.2638 7.5 20.9062 10.8575 20.9062 15V20H15.9062V26.25H20.9062V40H28.4062V26.25H32.1562L34.6562 20Z" fill="#FAFAFA"/>
</g>
<defs>
<clipPath id="clip0_162_710">
<rect width="40" height="40" fill="white" transform="translate(0.90625)"/>
</clipPath>
</defs>
</svg>
