<svg width="24" height="24" viewBox="0 0 24 24" fill="none" xmlns="http://www.w3.org/2000/svg">
<path fill-rule="evenodd" clip-rule="evenodd" d="M0 1.71429C0 0.76752 0.59696 0 1.33333 0H22.6667C23.4031 0 24 0.76752 24 1.71429C24 2.66105 23.4031 3.42857 22.6667 3.42857H1.33333C0.59696 3.42857 0 2.66105 0 1.71429ZM0 12C0 11.0532 0.59696 10.2857 1.33333 10.2857H14.6667C15.4031 10.2857 16 11.0532 16 12C16 12.9468 15.4031 13.7143 14.6667 13.7143H1.33333C0.59696 13.7143 0 12.9468 0 12ZM0 22.2857C0 21.3389 0.59696 20.5714 1.33333 20.5714H8C8.73637 20.5714 9.33333 21.3389 9.33333 22.2857C9.33333 23.2325 8.73637 24 8 24H1.33333C0.59696 24 0 23.2325 0 22.2857Z" fill="#F1F1F1"/>
</svg>
