<svg width="32" height="32" viewBox="0 0 32 32" fill="none" xmlns="http://www.w3.org/2000/svg">
<path d="M27.6364 0H4.36364C1.95367 0 0 1.95367 0 4.36364V27.6364C0 30.0463 1.95367 32 4.36364 32H27.6364C30.0463 32 32 30.0463 32 27.6364V4.36364C32 1.95367 30.0463 0 27.6364 0Z" fill="white"/>
<path d="M11.5327 8.72727C11.5327 9.26668 11.3727 9.79397 11.073 10.2425C10.7734 10.691 10.3474 11.0405 9.84908 11.2469C9.35074 11.4534 8.80237 11.5074 8.27333 11.4021C7.7443 11.2969 7.25834 11.0372 6.87693 10.6557C6.49551 10.2743 6.23576 9.78838 6.13053 9.25934C6.0253 8.7303 6.07931 8.18193 6.28573 7.68359C6.49215 7.18525 6.84171 6.7593 7.29021 6.45963C7.73871 6.15995 8.266 6 8.8054 6C9.52872 6 10.2224 6.28734 10.7339 6.7988C11.2453 7.31026 11.5327 8.00395 11.5327 8.72727Z" fill="#4B0D62"/>
<path d="M10.9208 13.2755V25.3246C10.9212 25.4135 10.9042 25.5016 10.8705 25.5838C10.8368 25.6661 10.7872 25.7409 10.7245 25.8039C10.6618 25.8669 10.5873 25.9169 10.5052 25.9511C10.4231 25.9852 10.3351 26.0028 10.2462 26.0028H7.37168C7.28279 26.003 7.19473 25.9857 7.11256 25.9518C7.03039 25.9179 6.95574 25.868 6.89288 25.8052C6.83003 25.7423 6.78022 25.6677 6.74631 25.5855C6.71241 25.5033 6.69508 25.4153 6.69531 25.3264V13.2755C6.69531 13.0961 6.76657 12.9241 6.89342 12.7972C7.02026 12.6704 7.1923 12.5991 7.37168 12.5991H10.2462C10.4253 12.5996 10.5969 12.6711 10.7233 12.7979C10.8498 12.9247 10.9208 13.0964 10.9208 13.2755Z" fill="#4B0D62"/>
<path d="M25.9421 19.5451V25.3778C25.9424 25.4595 25.9265 25.5405 25.8953 25.6161C25.8641 25.6916 25.8183 25.7603 25.7605 25.818C25.7028 25.8758 25.6341 25.9216 25.5586 25.9528C25.483 25.984 25.402 25.9999 25.3203 25.9996H22.2294C22.1477 25.9999 22.0667 25.984 21.9912 25.9528C21.9156 25.9216 21.847 25.8758 21.7892 25.818C21.7314 25.7603 21.6856 25.6916 21.6544 25.6161C21.6233 25.5405 21.6073 25.4595 21.6076 25.3778V19.7251C21.6076 18.8815 21.8549 16.0305 19.4021 16.0305C17.5021 16.0305 17.1149 17.9815 17.0385 18.8578V25.3778C17.0385 25.5412 16.9743 25.698 16.8596 25.8143C16.7449 25.9307 16.5891 25.9972 16.4258 25.9996H13.4403C13.3587 25.9996 13.278 25.9835 13.2026 25.9523C13.1273 25.921 13.0589 25.8752 13.0013 25.8174C12.9437 25.7596 12.898 25.6911 12.867 25.6156C12.8359 25.5402 12.8201 25.4594 12.8203 25.3778V13.2196C12.8201 13.1381 12.8359 13.0572 12.867 12.9818C12.898 12.9064 12.9437 12.8378 13.0013 12.7801C13.0589 12.7223 13.1273 12.6765 13.2026 12.6452C13.278 12.6139 13.3587 12.5978 13.4403 12.5978H16.4258C16.5907 12.5978 16.7488 12.6633 16.8655 12.7799C16.9821 12.8966 17.0476 13.0547 17.0476 13.2196V14.2705C17.753 13.2124 18.7985 12.396 21.0294 12.396C25.9712 12.396 25.9421 17.0105 25.9421 19.5451Z" fill="#4B0D62"/>
</svg>
