<svg width="32" height="32" viewBox="0 0 32 32" fill="none" xmlns="http://www.w3.org/2000/svg">
<g clip-path="url(#clip0_1680_103621)">
<path d="M23.9746 0H8C3.60635 0 0 3.60635 0 8.0254V24C0 28.3937 3.60635 32 8 32H23.9746C28.3937 32 32 28.3937 32 23.9746V8.0254C32 3.60635 28.3937 0 23.9746 0ZM25.5746 21.2571C25.4984 21.4095 25.3206 21.5619 25.0159 21.7143C24.6095 21.9175 23.9746 22.0698 23.1365 22.1968C23.0603 22.2222 22.9841 22.273 22.9333 22.3492C22.8825 22.4254 22.8571 22.6032 22.8064 22.8317L22.781 22.9587C22.7556 23.0603 22.7302 23.1873 22.7048 23.2889C22.654 23.4159 22.5778 23.4921 22.4254 23.4921C22.3492 23.4921 22.2222 23.4921 22.019 23.4413C21.7397 23.3905 21.3841 23.3143 20.927 23.3143C20.6476 23.3143 20.3937 23.3397 20.1397 23.3905C19.6064 23.4921 19.1238 23.7968 18.6159 24.1524C17.9302 24.6349 17.1683 25.1937 16 25.1937C15.9492 25.1937 15.8984 25.1937 15.873 25.1937C15.8476 25.1937 15.8476 25.1937 15.8222 25.1937C15.7968 25.1937 15.7714 25.1937 15.7714 25.1937C14.6032 25.1937 13.8413 24.6349 13.1302 24.1524C12.6476 23.8222 12.1905 23.4921 11.6317 23.3905C11.3778 23.3397 11.0984 23.3143 10.8444 23.3143C10.3873 23.3143 10.0317 23.3905 9.77778 23.4413H9.75238C9.6254 23.4667 9.47302 23.4921 9.34603 23.4921C9.19365 23.4921 9.09206 23.4413 9.04127 23.2889C8.93968 23.1111 8.88889 22.9841 8.86349 22.8571L8.8381 22.781C8.7873 22.5778 8.76191 22.4 8.68571 22.2984C8.66032 22.2222 8.58413 22.1714 8.50794 22.1714C7.66984 22.0444 7.03492 21.8667 6.60318 21.6889C6.32381 21.5619 6.12064 21.4095 6.04444 21.2571C6.01905 21.2064 6.01905 21.1556 6.01905 21.1302C6.01905 21.1048 6.01905 21.1048 6.01905 21.0794C6.12064 20.9778 6.17143 20.927 6.24762 20.9016C6.90794 20.8 7.51746 20.546 8.05079 20.1905C8.50794 19.9111 8.93968 19.5302 9.32064 19.073C9.98095 18.3111 10.3111 17.5746 10.3619 17.4476V17.4222C10.5397 17.0921 10.5651 16.7873 10.4635 16.5587C10.2603 16.1016 9.65079 15.8984 9.21905 15.7714L9.14286 15.746C9.06667 15.7206 8.99048 15.6952 8.93968 15.6698C8.63492 15.5429 8.40635 15.4159 8.27937 15.2889C8.07619 15.1111 8.05079 14.9333 8.07619 14.8317C8.10159 14.7048 8.20318 14.5524 8.38095 14.4508C8.60952 14.3238 8.91429 14.273 9.09206 14.3746C9.67619 14.654 10.1587 14.7302 10.5143 14.5524C10.6159 14.5016 10.6667 14.4 10.6667 14.2984C10.6667 14.146 10.6413 13.9937 10.6413 13.8413V13.8159C10.5651 12.4952 10.4635 10.8444 10.8698 9.90476C11.1746 9.24444 11.5556 8.68571 12.0381 8.22857C12.4444 7.84762 12.9016 7.54286 13.4349 7.31429C14.3492 6.90794 15.1873 6.85714 15.619 6.85714H16C16.4317 6.85714 17.2698 6.90794 18.1841 7.31429C18.7175 7.54286 19.1746 7.84762 19.581 8.22857C20.0635 8.68571 20.4698 9.24444 20.7492 9.90476C21.181 10.8444 21.054 12.4952 20.9778 13.7905V13.8667C20.9778 13.9683 20.9524 14.0444 20.9524 14.146V14.273C20.9524 14.3746 21.0032 14.4762 21.1048 14.527C21.2064 14.5778 21.3333 14.6032 21.4603 14.6032C21.4603 14.6032 21.4857 14.6032 21.5111 14.6032C21.7905 14.5778 22.0952 14.5016 22.4254 14.3492C22.5524 14.2984 22.6794 14.2984 22.7302 14.2984C22.8571 14.2984 22.9587 14.3238 23.0857 14.3746C23.3651 14.4762 23.5683 14.6794 23.5683 14.8825C23.5683 14.9587 23.5429 15.0857 23.3905 15.2381C23.2381 15.3905 23.0095 15.5175 22.6794 15.6698C22.6286 15.6952 22.5524 15.7206 22.5016 15.7206L22.4254 15.746C22.0191 15.873 21.3841 16.0762 21.181 16.5333C21.0794 16.7619 21.1048 17.0667 21.2825 17.4222C21.2825 17.4476 21.2825 17.4476 21.3079 17.473C21.5365 17.981 22.8064 20.4698 25.4222 20.9016C25.5238 20.927 25.6 21.0032 25.6 21.1302C25.6 21.181 25.5746 21.2317 25.5746 21.2571Z" fill="white"/>
</g>
<defs>
<clipPath id="clip0_1680_103621">
<rect width="32" height="32" fill="white"/>
</clipPath>
</defs>
</svg>
