<svg width="32" height="32" viewBox="0 0 32 32" fill="none" xmlns="http://www.w3.org/2000/svg">
<path d="M30.2397 1.76025C29.0666 0.586824 27.6531 0 26.0005 0H6.00005C4.3474 0 2.93395 0.586824 1.76028 1.76025C0.586833 2.9339 0 4.34725 0 5.99995V25.9998C0 27.6524 0.586833 29.0659 1.76028 30.2395C2.93395 31.4132 4.3474 32 6.00005 32H26.0002C27.6529 32 29.0663 31.4132 30.2395 30.2395C31.4132 29.0659 32 27.6525 32 25.9998V5.99995C31.9999 4.34725 31.4131 2.93368 30.2397 1.76025ZM24.4795 12.3126C24.4934 12.4376 24.5005 12.6247 24.5005 12.8752C24.5005 14.0419 24.3302 15.212 23.99 16.3853C23.6499 17.5592 23.129 18.6842 22.4273 19.7605C21.7263 20.8367 20.8895 21.7884 19.9174 22.6147C18.945 23.4407 17.7785 24.1007 16.4171 24.5934C15.0563 25.0868 13.5977 25.3335 12.0423 25.3335C9.62576 25.3335 7.38963 24.6803 5.33397 23.3753C5.6673 23.4168 6.01471 23.4377 6.37563 23.4377C8.38963 23.4377 10.2022 22.8127 11.8134 21.5624C10.869 21.5489 10.0251 21.2574 9.28214 20.6874C8.53893 20.118 8.02171 19.3959 7.72997 18.5209C8.09096 18.5763 8.36175 18.6038 8.54228 18.6038C8.84781 18.6038 9.20209 18.5484 9.60474 18.4375C8.59088 18.2428 7.73683 17.7398 7.04236 16.9273C6.34775 16.1147 6.00056 15.1877 6.00056 14.1461V14.1044C6.73647 14.4514 7.43093 14.6319 8.08381 14.646C6.81988 13.7986 6.18795 12.5835 6.18795 11.0002C6.18795 10.2224 6.3892 9.48631 6.792 8.79185C7.88912 10.1392 9.22274 11.2154 10.792 12.0209C12.3614 12.8264 14.0421 13.278 15.8337 13.3751C15.7644 13.1112 15.7296 12.7778 15.7296 12.3751C15.7296 11.1666 16.1567 10.1355 17.0109 9.28126C17.8649 8.42707 18.8963 7.99984 20.1045 7.99984C21.3826 7.99984 22.4453 8.45831 23.2924 9.37503C24.2508 9.1945 25.1818 8.84016 26.0843 8.31258C25.7372 9.38174 25.091 10.1943 24.1469 10.7499C25.0494 10.6247 25.8895 10.3887 26.6671 10.0415C26.0839 10.9304 25.3545 11.6873 24.4795 12.3126Z" fill="white"/>
</svg>
